<svg width="16" height="18" viewBox="0 0 16 18" fill="none" xmlns="http://www.w3.org/2000/svg">
<path d="M14.6667 1.33333H12.6667V0.666667C12.6667 0.489856 12.5964 0.320286 12.4714 0.195262C12.3464 0.0702379 12.1768 0 12 0C11.8232 0 11.6536 0.0702379 11.5286 0.195262C11.4036 0.320286 11.3333 0.489856 11.3333 0.666667V1.33333H4.66667V0.666667C4.66667 0.489856 4.59643 0.320286 4.4714 0.195262C4.34638 0.0702379 4.17681 0 4 0C3.82319 0 3.65362 0.0702379 3.5286 0.195262C3.40357 0.320286 3.33333 0.489856 3.33333 0.666667V1.33333H1.33333C0.979711 1.33333 0.640573 1.47381 0.390524 1.72386C0.140476 1.97391 0 2.31304 0 2.66667V16C0 16.3536 0.140476 16.6928 0.390524 16.9428C0.640573 17.1929 0.979711 17.3333 1.33333 17.3333H14.6667C15.0203 17.3333 15.3594 17.1929 15.6095 16.9428C15.8595 16.6928 16 16.3536 16 16V2.66667C16 2.31304 15.8595 1.97391 15.6095 1.72386C15.3594 1.47381 15.0203 1.33333 14.6667 1.33333ZM3.33333 2.66667V3.33333C3.33333 3.51014 3.40357 3.67971 3.5286 3.80474C3.65362 3.92976 3.82319 4 4 4C4.17681 4 4.34638 3.92976 4.4714 3.80474C4.59643 3.67971 4.66667 3.51014 4.66667 3.33333V2.66667H11.3333V3.33333C11.3333 3.51014 11.4036 3.67971 11.5286 3.80474C11.6536 3.92976 11.8232 4 12 4C12.1768 4 12.3464 3.92976 12.4714 3.80474C12.5964 3.67971 12.6667 3.51014 12.6667 3.33333V2.66667H14.6667V5.33333H1.33333V2.66667H3.33333ZM14.6667 16H1.33333V6.66667H14.6667V16ZM11.4717 8.86167C11.5337 8.92358 11.5828 8.99711 11.6164 9.07804C11.6499 9.15897 11.6672 9.24572 11.6672 9.33333C11.6672 9.42094 11.6499 9.50769 11.6164 9.58863C11.5828 9.66956 11.5337 9.74308 11.4717 9.805L7.47167 13.805C7.40975 13.867 7.33623 13.9162 7.25529 13.9497C7.17436 13.9833 7.08761 14.0005 7 14.0005C6.91239 14.0005 6.82564 13.9833 6.74471 13.9497C6.66377 13.9162 6.59025 13.867 6.52833 13.805L4.52833 11.805C4.40324 11.6799 4.33296 11.5102 4.33296 11.3333C4.33296 11.1564 4.40324 10.9868 4.52833 10.8617C4.65343 10.7366 4.82309 10.6663 5 10.6663C5.17691 10.6663 5.34657 10.7366 5.47167 10.8617L7 12.3908L10.5283 8.86167C10.5902 8.79968 10.6638 8.75051 10.7447 8.71696C10.8256 8.68341 10.9124 8.66614 11 8.66614C11.0876 8.66614 11.1744 8.68341 11.2553 8.71696C11.3362 8.75051 11.4098 8.79968 11.4717 8.86167Z" fill="#A4B1C5" fill-opacity="0.8"/>
</svg>
