<svg width="16" height="13" viewBox="0 0 16 13" fill="none" xmlns="http://www.w3.org/2000/svg">
<path d="M9.62962 12.7261L15.199 7.15672C15.2855 7.07049 15.3542 6.96802 15.4011 6.85519C15.4479 6.74236 15.472 6.62139 15.472 6.49923C15.472 6.37706 15.4479 6.25609 15.4011 6.14326C15.3542 6.03044 15.2855 5.92796 15.199 5.84173L9.62962 0.272344C9.45524 0.0979652 9.21873 -2.59845e-09 8.97213 0C8.72552 2.59845e-09 8.48901 0.0979652 8.31463 0.272344C8.14025 0.446723 8.04228 0.683232 8.04228 0.929841C8.04228 1.17645 8.14025 1.41296 8.31463 1.58734L12.2991 5.57177H0.928231C0.682049 5.57177 0.44595 5.66956 0.271873 5.84364C0.0977955 6.01772 0 6.25382 0 6.5C0 6.74618 0.0977955 6.98228 0.271873 7.15636C0.44595 7.33043 0.682049 7.42823 0.928231 7.42823H12.2991L8.31385 11.4127C8.13947 11.587 8.04151 11.8235 8.04151 12.0702C8.04151 12.3168 8.13947 12.5533 8.31385 12.7277C8.48823 12.902 8.72474 13 8.97135 13C9.21796 13 9.45447 12.902 9.62885 12.7277L9.62962 12.7261Z" fill="#B1B1B1"/>
</svg>
