<svg width="16" height="13" viewBox="0 0 16 13" fill="none" xmlns="http://www.w3.org/2000/svg">
<path d="M6.37038 12.7261L0.800993 7.15672C0.714458 7.07049 0.645797 6.96802 0.598947 6.85519C0.552097 6.74236 0.52798 6.62139 0.52798 6.49923C0.52798 6.37706 0.552097 6.25609 0.598947 6.14326C0.645797 6.03043 0.714458 5.92796 0.800993 5.84173L6.37038 0.272344C6.54476 0.0979652 6.78127 -2.59845e-09 7.02787 0C7.27448 2.59845e-09 7.51099 0.0979652 7.68537 0.272344C7.85975 0.446723 7.95772 0.683232 7.95772 0.929841C7.95772 1.17645 7.85975 1.41296 7.68537 1.58734L3.70094 5.57177H15.0718C15.318 5.57177 15.5541 5.66956 15.7281 5.84364C15.9022 6.01772 16 6.25382 16 6.5C16 6.74618 15.9022 6.98228 15.7281 7.15636C15.5541 7.33043 15.318 7.42823 15.0718 7.42823H3.70094L7.68615 11.4127C7.86053 11.587 7.95849 11.8235 7.95849 12.0702C7.95849 12.3168 7.86053 12.5533 7.68615 12.7277C7.51177 12.902 7.27526 13 7.02865 13C6.78204 13 6.54553 12.902 6.37115 12.7277L6.37038 12.7261Z" fill="#1B3D6E"/>
</svg>
