<svg width="15" height="12" viewBox="0 0 15 12" fill="none" xmlns="http://www.w3.org/2000/svg">
<path d="M0.717579 5.82406C0.717579 5.67664 0.776142 5.53526 0.880385 5.43102C0.984629 5.32677 1.12601 5.26821 1.27344 5.26821L12.1606 5.26821L8.10631 1.21472C8.05467 1.16307 8.0137 1.10176 7.98575 1.03429C7.9578 0.966809 7.94342 0.894489 7.94342 0.821454C7.94342 0.748419 7.9578 0.676099 7.98575 0.608624C8.0137 0.541147 8.05467 0.479837 8.10631 0.428194C8.15796 0.376551 8.21927 0.335585 8.28675 0.307635C8.35422 0.279686 8.42655 0.2653 8.49958 0.2653C8.57262 0.2653 8.64494 0.279686 8.71242 0.307635C8.7799 0.335585 8.84121 0.376551 8.89285 0.428194L13.8956 5.4308C13.9472 5.48242 13.9882 5.54372 14.0162 5.6112C14.0442 5.67868 14.0586 5.75101 14.0586 5.82406C14.0586 5.8971 14.0442 5.96943 14.0162 6.03691C13.9882 6.10439 13.9472 6.16569 13.8956 6.21732L8.89285 11.2199C8.78855 11.3242 8.64709 11.3828 8.49958 11.3828C8.35208 11.3828 8.21061 11.3242 8.10631 11.2199C8.00201 11.1156 7.94342 10.9742 7.94342 10.8267C7.94342 10.6792 8.00201 10.5377 8.10631 10.4334L12.1606 6.3799L1.27344 6.3799C1.12601 6.3799 0.984629 6.32134 0.880385 6.2171C0.776142 6.11286 0.717579 5.97148 0.717579 5.82406Z" fill="white"/>
</svg>
