<svg xmlns="http://www.w3.org/2000/svg" width="193.781" height="41.292" viewBox="0 0 193.781 41.292">
  <g id="SMBXL_Logo" transform="translate(-11.1 -13.6)">
    <path id="Path_1" data-name="Path 1" d="M43.275,65.991a7.741,7.741,0,0,1-.8,3.792c-1.417,2.451-5.324,3.677-11.759,3.677H13.743a2.273,2.273,0,0,1-2.566-2.566c0-2.068.843-3.1,2.566-3.1h16.93c2.068,0,3.218-.038,3.486-.077,1.647-.192,2.49-.766,2.49-1.647v-2.3c0-.881-1.073-1.456-3.256-1.762-.843-.077-2.566-.153-5.018-.153h-.192a47.989,47.989,0,0,1-11.3-.958c-3.83-.958-5.784-3.064-5.784-6.244v-2.03c0-3.486,1.839-5.822,5.516-6.856C18.416,45.23,36,45,40.671,45a2.273,2.273,0,0,1,2.566,2.566v.5a2.3,2.3,0,0,1-2.566,2.6c-2.8,0-18.769,0-19.229.038-2.49.23-3.716.843-3.716,1.877v1.877c0,1.149,2.183,1.647,6.512,1.647h6.55a19.6,19.6,0,0,1,7.967,1.456c3.026,1.341,4.52,3.294,4.52,6.014v2.413Z" transform="translate(0 -19.373)" fill="#1b3d6e"/>
    <path id="Path_2" data-name="Path 2" d="M252.2,65.431a6.808,6.808,0,0,1-4.1,6.435,16.342,16.342,0,0,1-7.469,1.494H219.866a2.273,2.273,0,0,1-2.566-2.566V47.466a2.273,2.273,0,0,1,2.566-2.566h20.148a26.831,26.831,0,0,1,5.4.421,9.735,9.735,0,0,1,4.9,2.643,6.27,6.27,0,0,1,1.954,4.52,15.861,15.861,0,0,1-.192,3.409,11.257,11.257,0,0,1-1.685,3.179l-.077.077a6.827,6.827,0,0,1,1.762,2.988A28.972,28.972,0,0,1,252.2,65.431Zm-6.512-1.609c0-.881-.728-1.456-2.068-1.647-.383-.038-1.417-.077-3.179-.077H223.927v5.631h16.2a19.919,19.919,0,0,0,3.218-.153c1.417-.23,2.183-.8,2.375-1.685C245.683,65.623,245.683,64.971,245.683,63.822Zm.115-9.078c0-.23-.038-1-.153-2.222-.077-1.341-1.954-2.03-5.516-2.03H223.965V56.43h16.356c1.685,0,2.8-.038,3.218-.077C245.07,56.123,245.8,55.625,245.8,54.744Z" transform="translate(-127.217 -19.311)" fill="#1b3d6e"/>
    <path id="Path_3" data-name="Path 3" d="M465.237,70.709a2.273,2.273,0,0,1-2.566,2.566h-15.4a30.167,30.167,0,0,1-9.155-1.073c-3.371-1.187-5.018-3.447-5.018-6.818V47.266a2.273,2.273,0,0,1,2.566-2.566,9.639,9.639,0,0,1,2.681.23,2.234,2.234,0,0,1,1.341,2.3v18.08c0,1.034,1.034,1.762,3.179,2.03a29.418,29.418,0,0,0,4.443.192h15.437C464.394,67.644,465.237,68.678,465.237,70.709Z" transform="translate(-260.357 -19.187)" fill="#1b3d6e"/>
    <path id="Path_4" data-name="Path 4" d="M166.377,49.863v-.153c0-.077-.038-.192-.038-.268v-.077a1.944,1.944,0,0,0-.077-.345v-.038c-.038-.077-.038-.192-.077-.268,0-.038,0-.038-.038-.077a.794.794,0,0,1-.077-.23c0-.038-.038-.038-.038-.077a.8.8,0,0,0-.153-.23c-.038-.038-.038-.077-.038-.153-.038-.038-.077-.153-.153-.192-.038-.038-.038-.077-.077-.153-.038-.038-.077-.153-.192-.192l-.077-.077-.23-.23-.038-.038h0a1.337,1.337,0,0,0-.345-.23,2.349,2.349,0,0,1-.23-.153c-.038,0-.038-.038-.077-.038a.96.96,0,0,1-.268-.153h-.038a3.706,3.706,0,0,0-2.3-.23h-.192a1.421,1.421,0,0,0-.345.077h-.038c-.077.038-.192.038-.268.077h-.038a.96.96,0,0,0-.268.153h-.038a.587.587,0,0,0-.268.192h-.038c-.077.038-.192.153-.268.192h-.038c-.077.077-.192.153-.268.23h0c-.077.077-.153.192-.23.23L146.152,63.537a3.919,3.919,0,0,0,6.052,4.98l6.358-7.469V71.083a3.907,3.907,0,0,0,7.814,0V49.863Z" transform="translate(-82.767 -20.098)" fill="#d81f29"/>
    <path id="Path_5" data-name="Path 5" d="M117.2,19a5.4,5.4,0,1,1-5.4-5.4A5.395,5.395,0,0,1,117.2,19Z" transform="translate(-58.796)" fill="#f9a71c"/>
    <path id="Path_6" data-name="Path 6" d="M186.9,19a5.4,5.4,0,1,1-5.4-5.4A5.395,5.395,0,0,1,186.9,19Z" transform="translate(-101.798)" fill="#d81f29"/>
    <path id="Path_7" data-name="Path 7" d="M354.369,66.093c-3.064-2.49-6.129-5.056-9.231-7.623l6.473-5.439.651,2.451,4.9-11.032-11.8,2.6,2.566,1.264L340.465,54.6l-11.491-9.538a4.329,4.329,0,0,0-1.226-.728,5.207,5.207,0,0,0-1.187-.153,5.144,5.144,0,0,0-1.341.077,3.472,3.472,0,0,0-1.456.843A2.045,2.045,0,0,0,323,46.75a2.72,2.72,0,0,0,1.187,2.183l11.453,9.538L323.764,68.43A2.947,2.947,0,0,0,322.5,70.5a2.057,2.057,0,0,0,1.264,1.8,5.511,5.511,0,0,0,2.643.651,3.372,3.372,0,0,0,2.183-.651l11.874-9.882L352.147,72.3a3.814,3.814,0,0,0,2.375.728,5.833,5.833,0,0,0,2.183-.421c1.034-.46,1.57-1.073,1.57-1.8C358.161,69.809,356.9,68.238,354.369,66.093Z" transform="translate(-192.121 -18.862)" fill="#1b3d6e"/>
    <path id="Path_8" data-name="Path 8" d="M123.655,63.454c1.57-1.877,3.486-4.06,3.6-4.213L117.6,47.634a3.975,3.975,0,0,0-5.516-.536c-.077.077-.192.153-.23.23h0l-.077.077h-.038c-.038.038-.038.077-.077.077l-.038.038c-.038.038-.038.077-.077.077a.038.038,0,0,1-.038.038l-.077.077-.038.038c-.038.038-.038.038-.038.077l-.038.038c0,.038-.038.038-.038.077s-.038.038-.038.077l-.038.038c0,.038-.038.077-.038.153v.23c0,.038-.038.077-.038.153h0c0,.038-.038.077-.038.153h0a4.04,4.04,0,0,0-.192.728h0v.5h0V71.038a3.888,3.888,0,1,0,7.776,0V61L123,66.441C122.7,65.828,122.621,64.794,123.655,63.454Z" transform="translate(-61.572 -20.13)" fill="#f9a71c"/>
  </g>
</svg>
