<svg width="27" height="20" viewBox="0 0 27 20" fill="none" xmlns="http://www.w3.org/2000/svg">
<path d="M26.0544 3.2501L10.0544 19.2501C9.915 19.3899 9.74941 19.5009 9.56709 19.5766C9.38476 19.6523 9.18928 19.6913 8.99186 19.6913C8.79444 19.6913 8.59896 19.6523 8.41663 19.5766C8.2343 19.5009 8.06871 19.3899 7.92936 19.2501L0.92936 12.2501C0.78983 12.1106 0.679149 11.9449 0.603637 11.7626C0.528124 11.5803 0.489258 11.3849 0.489258 11.1876C0.489258 10.9903 0.528124 10.7949 0.603637 10.6126C0.679149 10.4303 0.78983 10.2646 0.92936 10.1251C1.06889 9.98557 1.23453 9.87489 1.41684 9.79938C1.59914 9.72387 1.79454 9.685 1.99186 9.685C2.18918 9.685 2.38458 9.72387 2.56688 9.79938C2.74918 9.87489 2.91483 9.98557 3.05436 10.1251L8.99311 16.0639L23.9319 1.1276C24.2137 0.845809 24.5958 0.6875 24.9944 0.6875C25.3929 0.6875 25.7751 0.845809 26.0569 1.1276C26.3387 1.40939 26.497 1.79159 26.497 2.1901C26.497 2.58862 26.3387 2.97081 26.0569 3.2526L26.0544 3.2501Z" fill="white"/>
</svg>
